<svg xmlns="http://www.w3.org/2000/svg" xmlns:xlink="http://www.w3.org/1999/xlink" width="1341" zoomAndPan="magnify" viewBox="0 0 1006.5 821.999993" height="1096" preserveAspectRatio="xMidYMid meet" version="1.0"><defs><g/></defs><g fill="#ffffff" fill-opacity="1"><g transform="translate(353.455083, 411.667135)"><g><path d="M 32.71875 -19.84375 C 32.71875 -22.882812 30.066406 -24.40625 24.765625 -24.40625 L 8.59375 -24.40625 C 8.382812 -24.40625 8.28125 -24.320312 8.28125 -24.15625 L 8.28125 -3.515625 C 8.28125 -3.359375 8.382812 -3.28125 8.59375 -3.28125 L 24.71875 -3.28125 C 30.050781 -3.28125 32.71875 -4.800781 32.71875 -7.84375 Z M 5.875 0 C 4.59375 0 3.953125 -0.46875 3.953125 -1.40625 L 3.953125 -26.28125 C 3.953125 -27.21875 4.566406 -27.6875 5.796875 -27.6875 L 24.59375 -27.6875 C 32.894531 -27.6875 37.046875 -25.109375 37.046875 -19.953125 L 37.046875 -7.71875 C 37.046875 -2.570312 32.894531 0 24.59375 0 Z M 5.875 0 "/></g></g></g><g fill="#ffffff" fill-opacity="1"><g transform="translate(394.251024, 411.667135)"><g><path d="M 11.3125 0 C 5.613281 0 2.765625 -1.769531 2.765625 -5.3125 L 2.765625 -7.59375 C 2.765625 -11.113281 5.613281 -12.875 11.3125 -12.875 L 28.3125 -12.875 L 28.3125 -13.484375 C 28.3125 -15.347656 26.675781 -16.28125 23.40625 -16.28125 L 17.765625 -16.28125 C 16.429688 -16.28125 15.765625 -16.800781 15.765625 -17.84375 C 15.765625 -18.90625 16.429688 -19.4375 17.765625 -19.4375 L 23.40625 -19.4375 C 29.457031 -19.4375 32.484375 -17.453125 32.484375 -13.484375 L 32.484375 -5.640625 C 32.484375 -1.878906 29.578125 0 23.765625 0 Z M 23.515625 -3.125 C 26.710938 -3.125 28.3125 -4.003906 28.3125 -5.765625 L 28.3125 -10.125 L 11.640625 -10.125 C 8.515625 -10.125 6.953125 -9.3125 6.953125 -7.6875 L 6.953125 -5.59375 C 6.953125 -3.945312 8.515625 -3.125 11.640625 -3.125 Z M 23.515625 -3.125 "/></g></g></g><g fill="#ffffff" fill-opacity="1"><g transform="translate(430.407427, 411.667135)"><g><path d="M 10.28125 -16.15625 L 10.28125 -1.484375 C 10.28125 -0.359375 9.585938 0.203125 8.203125 0.203125 C 6.765625 0.203125 6.046875 -0.359375 6.046875 -1.484375 L 6.046875 -16.15625 L 4.40625 -16.15625 C 3.09375 -16.15625 2.4375 -16.675781 2.4375 -17.71875 C 2.4375 -18.757812 3.09375 -19.28125 4.40625 -19.28125 L 6.046875 -19.28125 L 6.046875 -22.953125 C 6.046875 -24.078125 6.738281 -24.640625 8.125 -24.640625 C 9.5625 -24.640625 10.28125 -24.078125 10.28125 -22.953125 L 10.28125 -19.28125 L 17.15625 -19.28125 C 18.488281 -19.28125 19.15625 -18.757812 19.15625 -17.71875 C 19.15625 -16.675781 18.488281 -16.15625 17.15625 -16.15625 Z M 10.28125 -16.15625 "/></g></g></g><g fill="#ffffff" fill-opacity="1"><g transform="translate(452.005276, 411.667135)"><g><path d="M 11.3125 0 C 5.613281 0 2.765625 -1.769531 2.765625 -5.3125 L 2.765625 -7.59375 C 2.765625 -11.113281 5.613281 -12.875 11.3125 -12.875 L 28.3125 -12.875 L 28.3125 -13.484375 C 28.3125 -15.347656 26.675781 -16.28125 23.40625 -16.28125 L 17.765625 -16.28125 C 16.429688 -16.28125 15.765625 -16.800781 15.765625 -17.84375 C 15.765625 -18.90625 16.429688 -19.4375 17.765625 -19.4375 L 23.40625 -19.4375 C 29.457031 -19.4375 32.484375 -17.453125 32.484375 -13.484375 L 32.484375 -5.640625 C 32.484375 -1.878906 29.578125 0 23.765625 0 Z M 23.515625 -3.125 C 26.710938 -3.125 28.3125 -4.003906 28.3125 -5.765625 L 28.3125 -10.125 L 11.640625 -10.125 C 8.515625 -10.125 6.953125 -9.3125 6.953125 -7.6875 L 6.953125 -5.59375 C 6.953125 -3.945312 8.515625 -3.125 11.640625 -3.125 Z M 23.515625 -3.125 "/></g></g></g><g fill="#ffffff" fill-opacity="1"><g transform="translate(488.16168, 411.667135)"><g><path d="M 26.5625 -0.15625 C 26.1875 -0.132812 25.789062 -0.113281 25.375 -0.09375 C 24.96875 -0.0820312 24.535156 -0.078125 24.078125 -0.078125 L 15.5625 -0.078125 C 7.75 -0.078125 3.84375 -2.648438 3.84375 -7.796875 L 3.84375 -20.125 C 3.84375 -25.164062 7.679688 -27.6875 15.359375 -27.6875 L 24.28125 -27.6875 C 31.957031 -27.6875 35.796875 -25.164062 35.796875 -20.125 L 35.796875 -7.796875 C 35.796875 -4.734375 34.4375 -2.585938 31.71875 -1.359375 L 34.5625 0.59375 C 35.382812 1.101562 35.796875 1.625 35.796875 2.15625 C 35.796875 2.6875 35.585938 3.09375 35.171875 3.375 C 34.765625 3.65625 34.1875 3.796875 33.4375 3.796875 C 33.25 3.796875 33.015625 3.757812 32.734375 3.6875 C 32.453125 3.625 32.128906 3.472656 31.765625 3.234375 Z M 31.484375 -20.046875 C 31.484375 -22.953125 29.054688 -24.40625 24.203125 -24.40625 L 15.4375 -24.40625 C 10.582031 -24.40625 8.15625 -22.953125 8.15625 -20.046875 L 8.15625 -7.796875 C 8.15625 -4.785156 10.691406 -3.28125 15.765625 -3.28125 L 23.875 -3.28125 C 28.945312 -3.28125 31.484375 -4.785156 31.484375 -7.796875 Z M 31.484375 -20.046875 "/></g></g></g><g fill="#ffffff" fill-opacity="1"><g transform="translate(527.757742, 411.667135)"><g><path d="M 14.078125 0 C 7.203125 0 3.765625 -2.101562 3.765625 -6.3125 L 3.765625 -17.953125 C 3.765625 -19.078125 4.46875 -19.640625 5.875 -19.640625 C 7.289062 -19.640625 8 -19.078125 8 -17.953125 L 8 -6.28125 C 8 -4.25 9.972656 -3.234375 13.921875 -3.234375 L 21.515625 -3.234375 C 25.460938 -3.234375 27.4375 -4.25 27.4375 -6.28125 L 27.4375 -17.953125 C 27.4375 -19.078125 28.144531 -19.640625 29.5625 -19.640625 C 31 -19.640625 31.71875 -19.078125 31.71875 -17.953125 L 31.71875 -6.3125 C 31.71875 -2.101562 28.28125 0 21.40625 0 Z M 14.078125 0 "/></g></g></g><g fill="#ffffff" fill-opacity="1"><g transform="translate(563.234218, 411.667135)"><g><path d="M 7.84375 -8.40625 L 7.84375 -5.953125 C 7.84375 -4.066406 9.695312 -3.125 13.40625 -3.125 L 19.3125 -3.125 C 20.644531 -3.125 21.3125 -2.601562 21.3125 -1.5625 C 21.3125 -0.519531 20.644531 0 19.3125 0 L 13.40625 0 C 6.894531 0 3.640625 -1.972656 3.640625 -5.921875 L 3.640625 -13.765625 C 3.640625 -17.546875 6.546875 -19.4375 12.359375 -19.4375 L 23.921875 -19.4375 C 29.597656 -19.4375 32.4375 -17.726562 32.4375 -14.3125 L 32.4375 -9.84375 C 32.4375 -8.882812 31.820312 -8.40625 30.59375 -8.40625 Z M 7.84375 -11.15625 L 27.921875 -11.15625 C 28.128906 -11.15625 28.234375 -11.25 28.234375 -11.4375 L 28.234375 -13.515625 C 28.234375 -15.359375 26.6875 -16.28125 23.59375 -16.28125 L 12.59375 -16.28125 C 9.425781 -16.28125 7.84375 -15.359375 7.84375 -13.515625 Z M 7.84375 -11.15625 "/></g></g></g><g fill="#ffffff" fill-opacity="1"><g transform="translate(598.510697, 411.667135)"><g><path d="M 29.5625 -4.484375 C 29.5625 -1.492188 26.519531 0 20.4375 0 L 4.84375 0 C 3.507812 0 2.84375 -0.519531 2.84375 -1.5625 C 2.84375 -2.601562 3.507812 -3.125 4.84375 -3.125 L 20.4375 -3.125 C 23.71875 -3.125 25.359375 -3.578125 25.359375 -4.484375 L 25.359375 -6.71875 C 25.359375 -7.625 23.71875 -8.078125 20.4375 -8.078125 L 12.203125 -8.078125 C 6.117188 -8.078125 3.078125 -9.53125 3.078125 -12.4375 L 3.078125 -14.3125 C 3.078125 -17.726562 6.210938 -19.4375 12.484375 -19.4375 L 17.953125 -19.4375 C 19.316406 -19.4375 20 -18.90625 20 -17.84375 C 20 -17.3125 19.816406 -16.914062 19.453125 -16.65625 C 19.097656 -16.40625 18.597656 -16.28125 17.953125 -16.28125 L 12.484375 -16.28125 C 8.984375 -16.28125 7.234375 -15.625 7.234375 -14.3125 L 7.234375 -12.5625 C 7.234375 -11.46875 8.96875 -10.921875 12.4375 -10.921875 L 20.6875 -10.921875 C 26.601562 -10.921875 29.5625 -9.5625 29.5625 -6.84375 Z M 29.5625 -4.484375 "/></g></g></g><g fill="#ffffff" fill-opacity="1"><g transform="translate(631.22743, 411.667135)"><g><path d="M 10.28125 -16.15625 L 10.28125 -1.484375 C 10.28125 -0.359375 9.585938 0.203125 8.203125 0.203125 C 6.765625 0.203125 6.046875 -0.359375 6.046875 -1.484375 L 6.046875 -16.15625 L 4.40625 -16.15625 C 3.09375 -16.15625 2.4375 -16.675781 2.4375 -17.71875 C 2.4375 -18.757812 3.09375 -19.28125 4.40625 -19.28125 L 6.046875 -19.28125 L 6.046875 -22.953125 C 6.046875 -24.078125 6.738281 -24.640625 8.125 -24.640625 C 9.5625 -24.640625 10.28125 -24.078125 10.28125 -22.953125 L 10.28125 -19.28125 L 17.15625 -19.28125 C 18.488281 -19.28125 19.15625 -18.757812 19.15625 -17.71875 C 19.15625 -16.675781 18.488281 -16.15625 17.15625 -16.15625 Z M 10.28125 -16.15625 "/></g></g></g></svg>